<svg xmlns="http://www.w3.org/2000/svg" version="1.1" viewBox="113 135.75 582 332.47">

<path d="M0 0 C15.79219358 5.07784367 31.54089989 7.90541038 47.95898438 9.99414062 C49.94833098 10.25230293 51.93767004 10.51052337 53.92700195 10.76879883 C85.62439179 14.84794925 117.33463336 17.83264302 149.23016357 19.83270264 C151.67677699 19.98812432 154.12283117 20.15042019 156.56884766 20.31494141 C216.00719872 24.2717961 276.16939612 22.82054963 335.47911072 17.49711609 C341.87661742 16.94285169 348.28366306 16.62743211 354.69924927 16.36436462 C358.86943221 16.27622907 358.86943221 16.27622907 362.77148438 14.99414062 C365.11676886 14.68767471 367.46863948 14.43119865 369.82226562 14.19726562 C371.30604937 14.04509683 372.78977081 13.89231957 374.2734375 13.73901367 C375.05726807 13.65888031 375.84109863 13.57874695 376.64868164 13.4961853 C410.83519469 9.95800972 443.78193087 3.14382021 476.53686523 -7.36083984 C481.46114929 -8.7822272 485.90691359 -9.12464362 491.04101562 -9.10351562 C491.72201828 -9.10210068 492.40302094 -9.10068573 493.10466003 -9.09922791 C495.26448085 -9.09366236 497.42419527 -9.0811164 499.58398438 -9.06835938 C501.054686 -9.06333992 502.52538925 -9.05877779 503.99609375 -9.0546875 C507.58792478 -9.04370426 511.17969418 -9.02646359 514.77148438 -9.00585938 C514.63008957 -6.75557609 514.48320434 -4.50563731 514.33398438 -2.25585938 C514.25277344 -1.00289063 514.1715625 0.25007813 514.08789062 1.54101562 C513.58667048 7.01112194 513.58667048 7.01112194 512.77148438 8.99414062 C510.01275494 10.48078926 507.4226737 11.66783732 504.52148438 12.80664062 C503.66594971 13.15138428 502.81041504 13.49612793 501.92895508 13.85131836 C499.21933875 14.92585112 496.49921169 15.96651492 493.77148438 16.99414062 C492.95534668 17.30287109 492.13920898 17.61160156 491.29833984 17.9296875 C437.52275358 37.88133591 376.76672947 40.66870945 320.0433197 43.79548645 C316.90507809 43.98602929 313.77513648 44.22650676 310.64160156 44.48217773 C283.96798309 46.5444519 257.1349438 46.18192239 230.40234375 46.17944336 C225.83654797 46.17936241 221.27085321 46.18627039 216.70507812 46.19995117 C187.66306655 46.28553348 158.75959377 45.81935041 129.77148438 43.99414062 C128.61390625 43.9225473 127.45632813 43.85095398 126.26367188 43.77719116 C121.04984009 43.4483113 115.8401222 43.08488384 110.63232422 42.67138672 C108.30808558 42.48713281 105.98324555 42.31246677 103.65820312 42.13867188 C93.51300049 41.36686715 83.40069966 40.37168202 73.28674316 39.26721191 C70.67310771 38.98346028 68.05884003 38.70629199 65.44433594 38.43066406 C31.38880858 34.83439341 -2.0342572 31.12972346 -34.60351562 19.93164062 C-35.52398682 19.61549805 -36.44445801 19.29935547 -37.39282227 18.97363281 C-54.72757217 12.79566291 -54.72757217 12.79566291 -59.60351562 6.05664062 C-60.55677734 4.75726563 -60.55677734 4.75726563 -61.52929688 3.43164062 C-62.09003906 2.62726563 -62.65078125 1.82289063 -63.22851562 0.99414062 C-63.93041016 0.06601562 -63.93041016 0.06601562 -64.64648438 -0.88085938 C-65.79101562 -2.44335938 -65.79101562 -2.44335938 -67.22851562 -5.00585938 C-66.89851563 -5.99585938 -66.56851563 -6.98585938 -66.22851562 -8.00585938 C-43.80174947 -13.05251672 -21.21643451 -6.87631452 0 0 Z " fill="#DD0000" transform="translate(180.228515625,422.005859375)" data-index="1" style="visibility: visible; opacity: 1;"/>
<path d="M0 0 C2.11994445 -0.00688753 4.2398887 -0.01383683 6.35983276 -0.02084351 C13.12009849 -0.03993894 19.88033576 -0.04450335 26.640625 -0.046875 C27.78605522 -0.04775871 28.93148544 -0.04864243 30.11162567 -0.04955292 C71.24628271 -0.0777809 111.95551399 0.90606915 152.890625 5.203125 C153.1172583 5.78280029 153.3438916 6.36247559 153.57739258 6.9597168 C154.61469216 9.60518768 155.65883895 12.24790462 156.703125 14.890625 C157.05955078 15.80263672 157.41597656 16.71464844 157.78320312 17.65429688 C159.54150279 22.09037401 161.36596313 26.14291537 163.890625 30.203125 C164.60633305 31.89864744 165.32152118 33.59440468 166.02880859 35.29345703 C167.65206473 38.8903719 169.68845409 42.25215989 171.703125 45.640625 C172.15034912 46.3948877 172.59757324 47.14915039 173.05834961 47.92626953 C176.70756224 54.01644254 180.65512689 59.54003161 185.21875 64.9765625 C186.03859375 65.95882812 186.8584375 66.94109375 187.703125 67.953125 C188.47269531 68.85546875 189.24226563 69.7578125 190.03515625 70.6875 C191.74167292 73.00117734 192.49123631 74.40085683 192.890625 77.203125 C190.37108212 78.1649673 187.85008863 79.12266741 185.328125 80.078125 C184.62365234 80.34753906 183.91917969 80.61695313 183.19335938 80.89453125 C175.95047179 83.63147495 169.66482866 85.47590408 161.890625 85.203125 C161.80835988 81.00760407 162.07132849 77.29960753 162.890625 73.203125 C163.11791083 68.88469427 163.23144411 65.87945846 160.890625 62.203125 C158.9640356 60.66870468 158.9640356 60.66870468 156.765625 59.453125 C156.04117187 59.02515625 155.31671875 58.5971875 154.5703125 58.15625 C154.01601563 57.84171875 153.46171875 57.5271875 152.890625 57.203125 C154.2891041 53.7943322 155.74069433 52.32918665 158.890625 50.453125 C159.591875 50.02515625 160.293125 49.5971875 161.015625 49.15625 C162.890625 48.203125 162.890625 48.203125 164.890625 48.203125 C161.56373312 41.89689922 157.83647284 36.08713183 153.640625 30.328125 C152.56949342 28.85404392 151.50163129 27.37757999 150.4375 25.8984375 C149.97182617 25.25922363 149.50615234 24.62000977 149.02636719 23.96142578 C147.890625 22.203125 147.890625 22.203125 146.890625 19.203125 C144.38625449 21.45548339 143.03998393 23.60523398 141.62890625 26.65234375 C141.23251953 27.49990234 140.83613281 28.34746094 140.42773438 29.22070312 C139.82155273 30.54231445 139.82155273 30.54231445 139.203125 31.890625 C138.57954102 33.22963867 138.57954102 33.22963867 137.94335938 34.59570312 C136.91990827 36.79553481 135.90259296 38.99799319 134.890625 41.203125 C124.7471471 41.48470351 114.93676398 40.45331118 104.890625 39.203125 C104.890625 38.543125 104.890625 37.883125 104.890625 37.203125 C104.045 37.21472656 103.199375 37.22632813 102.328125 37.23828125 C100.6265625 37.25181641 100.6265625 37.25181641 98.890625 37.265625 C97.776875 37.27722656 96.663125 37.28882813 95.515625 37.30078125 C91.62480112 37.1959638 87.75280417 36.6858974 83.890625 36.203125 C83.230625 43.133125 82.570625 50.063125 81.890625 57.203125 C84.44554687 56.87570313 87.00046875 56.54828125 89.6328125 56.2109375 C99.77525641 55.02077782 109.8177644 54.97388457 120.015625 55.078125 C121.76431767 55.08819549 123.51301609 55.09731401 125.26171875 55.10546875 C129.47150103 55.12711274 133.68099579 55.16140738 137.890625 55.203125 C136.405625 59.163125 136.405625 59.163125 134.890625 63.203125 C117.84254169 66.05721369 101.76005358 66.1121788 84.890625 62.203125 C84.890625 61.543125 84.890625 60.883125 84.890625 60.203125 C83.611875 60.14125 82.333125 60.079375 81.015625 60.015625 C75.31538105 59.41750719 70.82173568 56.99296006 65.890625 54.203125 C64.89899576 56.5439421 63.98235687 58.83231789 63.37109375 61.30322266 C61.94968812 66.76302511 59.93924894 71.47751309 55.92724609 75.51708984 C43.89173535 82.19961414 24.13558972 78.23095605 10.890625 77.203125 C10.39506104 76.23963135 9.89949707 75.2761377 9.38891602 74.28344727 C4.52545102 64.79455379 4.52545102 64.79455379 -4.171875 59.140625 C-11.24469287 55.84406863 -13.82513943 51.87665442 -17.0703125 45.05859375 C-18.109375 42.203125 -18.109375 42.203125 -18.109375 39.203125 C-19.01234062 39.23976509 -19.01234062 39.23976509 -19.93354797 39.27714539 C-26.24410551 39.5220074 -32.55329958 39.68699965 -38.86743164 39.80737305 C-41.21792468 39.86242615 -43.56804555 39.93729801 -45.91723633 40.03295898 C-67.58189612 40.89255826 -67.58189612 40.89255826 -73.60112 35.46308899 C-75.68235992 33.18847281 -77.41300469 30.77425117 -79.109375 28.203125 C-81.89487582 24.24426724 -81.89487582 24.24426724 -86.109375 22.203125 C-86.37290771 23.07420898 -86.63644043 23.94529297 -86.90795898 24.84277344 C-88.097254 28.16922266 -89.53376214 30.93425036 -91.33203125 33.96875 C-92.26305664 35.55042969 -92.26305664 35.55042969 -93.21289062 37.1640625 C-93.85935547 38.24945313 -94.50582031 39.33484375 -95.171875 40.453125 C-96.45478426 42.62478904 -97.73735401 44.79665369 -99.01953125 46.96875 C-99.58808838 47.92555664 -100.15664551 48.88236328 -100.74243164 49.86816406 C-101.57419706 51.28895429 -102.3731035 52.73058201 -103.109375 54.203125 C-96.839375 54.203125 -90.569375 54.203125 -84.109375 54.203125 C-87.109375 57.203125 -87.109375 57.203125 -90.39453125 58.5078125 C-94.499332 60.1398027 -98.25267008 61.72087143 -101.109375 65.203125 C-103.43197085 71.86400289 -103.25895827 79.22004775 -103.109375 86.203125 C-108.64834115 85.78068775 -113.34945514 85.03658037 -118.484375 82.765625 C-119.48210937 82.33378906 -120.47984375 81.90195313 -121.5078125 81.45703125 C-124.109375 80.203125 -124.109375 80.203125 -127.109375 78.203125 C-126.52485403 74.11055331 -125.19588915 71.28883792 -123.046875 67.7734375 C-122.1046106 66.21870728 -122.1046106 66.21870728 -121.14331055 64.63256836 C-120.47211182 63.54210205 -119.80091309 62.45163574 -119.109375 61.328125 C-117.7406648 59.08216568 -116.37217469 56.83607222 -115.00390625 54.58984375 C-114.33697754 53.49978027 -113.67004883 52.4097168 -112.98291016 51.28662109 C-111.35796052 48.61225129 -109.76035913 45.92560226 -108.18359375 43.22265625 C-107.77173828 42.51931152 -107.35988281 41.8159668 -106.93554688 41.09130859 C-106.19338971 39.81990298 -105.45615542 38.54560697 -104.72460938 37.26806641 C-103.90738634 35.87952128 -103.01654346 34.53464911 -102.109375 33.203125 C-101.449375 33.203125 -100.789375 33.203125 -100.109375 33.203125 C-100.00109375 32.48382813 -99.8928125 31.76453125 -99.78125 31.0234375 C-99.05342288 27.96825624 -97.93036151 25.79091098 -96.359375 23.078125 C-94.09371116 19.15842019 -92.47544377 15.40642702 -90.984375 11.140625 C-88.83950115 6.48171025 -88.83950115 6.48171025 -85.84301758 5.33837891 C-84.92673584 5.22413574 -84.0104541 5.10989258 -83.06640625 4.9921875 C-81.99326172 4.85385498 -80.92011719 4.71552246 -79.81445312 4.57299805 C-73.32348794 3.92501358 -66.83412415 3.32444759 -60.32983398 2.82543945 C-57.94274227 2.64222659 -55.55632736 2.45169052 -53.16992188 2.25976562 C-51.59378414 2.13498467 -50.01761316 2.0106228 -48.44140625 1.88671875 C-47.75746292 1.83253281 -47.07351959 1.77834686 -46.36885071 1.72251892 C-43.94974011 1.53771984 -41.52984221 1.36927421 -39.109375 1.203125 C-37.92449493 1.11799652 -36.73961487 1.03286804 -35.51882935 0.94515991 C-23.67874202 0.1398756 -11.86409088 0.02401478 0 0 Z " fill="#D90000" transform="translate(379.109375,135.796875)" data-index="2" style="visibility: visible; opacity: 1;"/>
<path d="M0 0 C0.58225342 0.06493652 1.16450684 0.12987305 1.7644043 0.19677734 C2.54726807 0.2839502 3.33013184 0.37112305 4.13671875 0.4609375 C5.37107666 0.60160645 5.37107666 0.60160645 6.63037109 0.74511719 C8.46483553 0.94243646 10.30425567 1.09397122 12.14453125 1.2265625 C15.28906794 1.6961712 17.33627899 2.23149989 20 4 C21.56072204 7.54461361 22.30184128 11.0709902 23.03125 14.84765625 C24.17444223 20.48025962 26.8868833 25.16157514 29.609375 30.171875 C31 33 31 33 31 36 C28.25071558 36.50423557 25.50068857 37.00353426 22.75 37.5 C21.97269531 37.64308594 21.19539063 37.78617187 20.39453125 37.93359375 C19.26337891 38.13662109 19.26337891 38.13662109 18.109375 38.34375 C17.41811523 38.46943359 16.72685547 38.59511719 16.01464844 38.72460938 C14 39 14 39 10 39 C22.70310003 58.58030671 32.26003927 72.98019675 55.16015625 80.32421875 C59.05469593 81.60219902 62.63527802 83.17642755 66.25756836 85.08886719 C71.61525831 87.89045033 77.33717985 89.91369784 83 92 C83 92.66 83 93.32 83 94 C84.25683594 94.36351562 84.25683594 94.36351562 85.5390625 94.734375 C89.47927808 96.17526648 92.81073506 98.06615734 96.375 100.25 C96.99632812 100.61996094 97.61765625 100.98992187 98.2578125 101.37109375 C103.52524336 104.55984838 103.52524336 104.55984838 105.71826172 106.59301758 C112.07663988 112.35805076 119.23747865 111.99731433 127.375 112.1875 C130.46277143 112.30148667 133.54966057 112.43467068 136.63671875 112.56640625 C137.81525169 112.61260101 137.81525169 112.61260101 139.01759338 112.659729 C144.0824881 112.87033296 149.10406244 113.24139644 154.14453125 113.77734375 C154.80488373 113.84722 155.46523621 113.91709625 156.14559937 113.98908997 C157.13893784 114.09443306 157.13893784 114.09443306 158.15234375 114.2019043 C173.7263276 115.85222317 189.21655086 116.32493083 204.875 116.375 C205.8907309 116.38267395 206.90646179 116.3903479 207.95297241 116.39825439 C223.71625757 116.51324391 223.71625757 116.51324391 239 113 C213.91202632 93.36489948 185.79708359 90.01332215 154.90112305 87.77050781 C151.82001777 87.54378362 148.7401586 87.30368129 145.66015625 87.0625 C144.7370314 86.9998999 143.81390656 86.9372998 142.86280823 86.87280273 C136.59331663 86.37587889 130.94892725 85.03106499 125 83 C125 82.34 125 81.68 125 81 C126.56020867 80.34865075 128.12328579 79.70417036 129.6875 79.0625 C130.99267578 78.52302734 130.99267578 78.52302734 132.32421875 77.97265625 C143.9871901 73.7331236 158.36084812 75.86235999 170.53104115 76.37250042 C187.41577769 77.06582096 204.26186111 77.05497109 221.15662575 76.92233849 C226.14724201 76.88404583 231.13787017 76.86025271 236.12858582 76.83930969 C236.98043058 76.8356723 237.83227534 76.83203492 238.70993358 76.8282873 C240.44688468 76.8208875 242.18383589 76.81351494 243.92078722 76.80616915 C255.48764124 76.75659258 267.05427027 76.69708061 278.62084961 76.60229492 C286.50211393 76.53782073 294.38317931 76.49470977 302.26468962 76.47613937 C306.41196889 76.46550778 310.55854601 76.44409366 314.70557594 76.39618492 C318.58600725 76.35147432 322.46554942 76.33490391 326.34622574 76.33964729 C327.76361655 76.33641318 329.18102874 76.322956 330.59820747 76.2982254 C338.30995234 76.16974185 343.76790232 76.34725314 349.75951672 81.51557636 C351 83 351 83 351 85 C342.037792 86.16078326 333.09414806 87.13126543 324.07421875 87.7109375 C322.80241257 87.79411224 322.80241257 87.79411224 321.50491333 87.87896729 C318.03443018 88.10337465 314.5638794 88.32388955 311.09204102 88.52636719 C286.01899869 90.01056651 261.38499979 94.23496512 241 110 C255.94201724 119.98036864 277.21968797 117.66494485 294.44036865 117.73822021 C298.12184483 117.75807116 301.80307049 117.80000497 305.484375 117.83984375 C312.65618132 117.91432067 319.82787992 117.9651048 327 118 C327 118.33 327 118.66 327 119 C323.0728693 119.72863813 319.3527883 120.12794455 315.36054993 120.14044189 C314.25958481 120.14615204 313.15861969 120.15186218 312.02429199 120.15774536 C310.23203186 120.15942215 310.23203186 120.15942215 308.40356445 120.16113281 C307.13195969 120.16609772 305.86035492 120.17106262 304.55021667 120.17617798 C301.0549869 120.18928884 297.55977638 120.1957529 294.06452584 120.20018864 C291.85055755 120.20314197 289.63659418 120.20725232 287.4226284 120.21169281 C280.412482 120.22540883 273.40234725 120.23503652 266.39218837 120.2388947 C259.23999514 120.24285681 252.08793819 120.25474197 244.93579102 120.28125 C203.84754453 120.43043459 163.01492416 119.63507225 122 117 C122.28438952 118.89693861 122.57783792 120.79252027 122.875 122.6875 C123.03742188 123.74324219 123.19984375 124.79898438 123.3671875 125.88671875 C123.96014494 128.80392297 124.88653835 131.25346127 126 134 C126.125 137.3125 126.125 137.3125 126 140 C118.67010632 140.07051101 111.34028948 140.12331066 104.01012135 140.15543652 C100.60387232 140.17088026 97.19786055 140.19171058 93.79174805 140.22631836 C69.5152665 140.45453966 44.63904732 140.04152782 22.3671875 129.1484375 C19.95082326 127.97614198 17.50316344 126.97097799 15 126 C15.65490861 119.05107494 16.93098848 112.51038503 18.62695312 105.75 C20.48168684 97.92343134 20.78787693 91.0697961 18.125 83.375 C17.80595703 82.45170898 17.80595703 82.45170898 17.48046875 81.50976562 C14.94629207 74.43461831 11.85274241 67.57315525 8.74267578 60.73583984 C7.44351138 57.84296572 6.20870132 54.93182778 5 52 C4.29967651 50.32925415 4.29967651 50.32925415 3.58520508 48.62475586 C-0.38284603 38.17707764 -0.59952321 28.64376206 -0.3125 17.5625 C-0.2873419 15.84834046 -0.26454221 14.13414463 -0.24414062 12.41992188 C-0.18983976 8.27902735 -0.10400231 4.13993201 0 0 Z " fill="#DC0000" transform="translate(167,274)" data-index="3" style="visibility: visible; opacity: 1;"/>
<path d="M0 0 C0.37697854 29.88279882 -3.32493704 52.18327364 -15.984375 79.51171875 C-16.65872525 81.00669844 -17.33071062 82.50274777 -18 84 C-18.47856445 85.02794678 -18.47856445 85.02794678 -18.96679688 86.07666016 C-22.70583165 94.78199793 -19.32160078 103.08923565 -16.9375 111.8125 C-16.38077458 113.85977174 -15.82723687 115.9079138 -15.27734375 117.95703125 C-15.03234131 118.85397705 -14.78733887 119.75092285 -14.53491211 120.67504883 C-14 123 -14 123 -14 126 C-22.84460325 129.97548877 -31.64638432 133.43635887 -41.0625 135.8125 C-41.81499023 136.00674561 -42.56748047 136.20099121 -43.34277344 136.40112305 C-58.15435227 139.95421671 -72.85129005 140.29574248 -88.00073242 140.20581055 C-91.1926267 140.18747054 -94.38423012 140.18530226 -97.57617188 140.18554688 C-107.75937371 140.16743205 -117.86339789 140.07174927 -128 139 C-127.82215809 128.15164323 -122.26942186 121.13006731 -115 113.4375 C-97.76284408 96.92933704 -73.01491811 85.79913609 -50.4375 78.875 C-38.77953952 75.22250594 -28.72261697 68.3902029 -22.125 58.125 C-21.70299316 57.48022705 -21.28098633 56.8354541 -20.84619141 56.17114258 C-12.9942532 45.22267812 -12.9942532 45.22267812 -9 33 C-10.01984985 33.37137085 -10.01984985 33.37137085 -11.06030273 33.75024414 C-14.17943931 34.87370577 -17.30802364 35.96818807 -20.4375 37.0625 C-21.50677734 37.45244141 -22.57605469 37.84238281 -23.67773438 38.24414062 C-29.31828391 40.19332135 -33.65396027 41.42165091 -39.55444336 40.36547852 C-44.99151852 39.5529297 -50.57711069 39.89958928 -56.0625 39.9375 C-57.30966797 39.94201172 -58.55683594 39.94652344 -59.84179688 39.95117188 C-62.89458221 39.96286837 -65.94726498 39.97925914 -69 40 C-69 40.66 -69 41.32 -69 42 C-73.310841 42.67769467 -77.62389584 43.34014117 -81.9375 44 C-83.14986328 44.19078125 -84.36222656 44.3815625 -85.61132812 44.578125 C-92.15754184 45.57158833 -98.37933821 46.22854496 -105 46 C-105 45.34 -105 44.68 -105 44 C-102.97247328 42.40850053 -100.96108864 40.97649807 -98.8125 39.5625 C-98.15628662 39.12873047 -97.50007324 38.69496094 -96.82397461 38.24804688 C-91.06519988 34.53039882 -85.11662973 31.20978562 -79.0625 28 C-77.75019409 27.29725952 -77.75019409 27.29725952 -76.41137695 26.58032227 C-71.31671384 23.93668649 -66.62762885 22.14769719 -61 21 C-61 20.34 -61 19.68 -61 19 C-58.39741676 18.16142312 -55.79314353 17.32896656 -53.1875 16.5 C-52.44951172 16.26152344 -51.71152344 16.02304687 -50.95117188 15.77734375 C-47.86744804 14.80059864 -45.25504191 14 -42 14 C-42 13.34 -42 12.68 -42 12 C-36.7161393 10.08687802 -31.57756324 8.65948526 -26.0625 7.5625 C-19.3580463 6.18536897 -13.00813454 4.29150321 -7.0390625 0.87890625 C-4.57461947 -0.18335368 -2.65877064 -0.06155828 0 0 Z " fill="#DE0000" transform="translate(651,274)" data-index="4" style="visibility: visible; opacity: 1;"/>

<path d="M0 0 C2.66873901 2.66873901 3.36370342 5.66284308 4.4375 9.1875 C4.65776855 9.91018066 4.87803711 10.63286133 5.10498047 11.37744141 C12.83993519 37.40121634 13.52647283 64.39390793 13.44604492 91.32641602 C13.43444298 95.40496216 13.45502179 99.48265668 13.48396206 103.56109142 C13.50246402 106.7674332 13.50200626 109.97357459 13.49632454 113.17995644 C13.49617374 114.68313118 13.50201233 116.18632168 13.51461601 117.68944359 C13.61842901 132.05731771 10.78812063 144.54228162 4.25 157.4375 C3.63318359 158.69530273 3.63318359 158.69530273 3.00390625 159.97851562 C2.01444579 161.9919526 1.01351624 163.9985974 0 166 C-4.87331783 164.49701413 -7.91912104 161.72109275 -11.5625 158.3125 C-12.12646484 157.80783203 -12.69042969 157.30316406 -13.27148438 156.78320312 C-19.68636512 150.84850059 -22.67986143 145.03824628 -23.23828125 136.25 C-23.72476129 117.81370971 -16.53952821 103.49899712 -7.47973633 87.89111328 C3.94596052 68.15603599 7.82135602 49.36468141 4.125 26.9375 C3.86396484 25.27750977 3.86396484 25.27750977 3.59765625 23.58398438 C2.66386453 17.72876445 1.62350058 11.91729816 0.36279297 6.12329102 C0 4 0 4 0 0 Z " fill="#DD0000" transform="translate(671,244)" data-index="6" style="visibility: visible; opacity: 1;"/>
<path d="M0 0 C0.66 0.33 1.32 0.66 2 1 C2.49902344 2.98339844 2.49902344 2.98339844 2.859375 5.609375 C3.00213867 6.58140869 3.14490234 7.55344238 3.29199219 8.55493164 C3.44313477 9.6093042 3.59427734 10.66367676 3.75 11.75 C6.83250976 31.41788015 11.53780409 49.181051 23.1875 65.5625 C33.46185253 80.32837275 33.10522909 99.14469427 31.5625 116.3125 C30.9579977 119.67131913 30.51486237 121.44867742 28.1796875 123.94921875 C25.8611566 125.55280197 23.53686964 126.7748968 21 128 C19.39546455 128.97856223 17.79128316 129.95770532 16.1875 130.9375 C13.93757635 132.27761846 12.54740491 132.97934321 9.9296875 133.078125 C6.7440527 131.29829665 6.06685404 128.09734362 4.9375 124.8125 C4.68073486 124.09578125 4.42396973 123.3790625 4.15942383 122.640625 C-0.19256322 110.10292209 -2.1501706 97.32250638 -2.16796875 84.08203125 C-2.17202225 83.12656403 -2.17607574 82.1710968 -2.18025208 81.18667603 C-2.18972657 78.06191689 -2.18964142 74.93727161 -2.1875 71.8125 C-2.1882251 70.74484406 -2.1889502 69.67718811 -2.18969727 68.57717896 C-2.18799216 45.68256988 -1.25140532 22.85645223 0 0 Z " fill="#DC0000" transform="translate(137,275)" data-index="7" style="visibility: visible;"/>
<path d="M0 0 C6.57315478 -0.36517527 11.79485526 0.86380263 18 3 C18 3.66 18 4.32 18 5 C18.61746094 5.09796875 19.23492187 5.1959375 19.87109375 5.296875 C25.18764429 6.23556581 29.82980677 7.56691703 34.69921875 9.90234375 C36.4907339 10.75703944 38.31274021 11.54792635 40.14453125 12.3125 C51.82071169 17.29028113 63.19896887 23.52020905 73.75 30.5625 C74.68779297 31.18813843 74.68779297 31.18813843 75.64453125 31.82641602 C79.86072324 34.72144648 79.86072324 34.72144648 81 37 C65.01831543 37.96967524 49.42135939 33.86666695 34.203125 29.46484375 C30.97834243 28.53343677 27.76819714 27.69844786 24.484375 27.00390625 C13.82700099 24.7121206 13.82700099 24.7121206 10.5625 20.625 C9.66374721 19.10889307 8.81664641 17.56186602 8 16 C7.29845479 14.80925076 6.59092313 13.62201737 5.87890625 12.4375 C0 2.54059966 0 2.54059966 0 0 Z " fill="#DC0000" transform="translate(191,283)" data-index="8" style="visibility: visible; opacity: 1;"/>
<path d="M0 0 C1.50361084 0.67627441 1.50361084 0.67627441 3.03759766 1.36621094 C19.65661842 8.43369442 37.73282477 7.66287321 55.44036865 7.73822021 C59.12184483 7.75807116 62.80307049 7.80000497 66.484375 7.83984375 C73.65618132 7.91432067 80.82787992 7.9651048 88 8 C88 8.33 88 8.66 88 9 C84.0728693 9.72863813 80.3527883 10.12794455 76.36054993 10.14044189 C75.25958481 10.14615204 74.15861969 10.15186218 73.02429199 10.15774536 C71.23203186 10.15942215 71.23203186 10.15942215 69.40356445 10.16113281 C68.13195969 10.16609772 66.86035492 10.17106262 65.55021667 10.17617798 C62.0549869 10.18928884 58.55977638 10.1957529 55.06452584 10.20018864 C52.85055755 10.20314197 50.63659418 10.20725232 48.4226284 10.21169281 C41.412482 10.22540883 34.40234725 10.23503652 27.39218837 10.2388947 C20.23999514 10.24285681 13.08793819 10.25474197 5.93579102 10.28125 C-35.15245547 10.43043459 -75.98507584 9.63507225 -117 7 C-117.33 7.99 -117.66 8.98 -118 10 C-118 8.68 -118 7.36 -118 6 C-107.605 5.505 -107.605 5.505 -97 5 C-100.3 4.67 -103.6 4.34 -107 4 C-107 3.67 -107 3.34 -107 3 C-97.89629116 2.81079562 -89.14662612 3.292533 -80.09649658 4.28338623 C-64.78090789 5.91444472 -49.52039864 6.33536409 -34.125 6.375 C-33.11108185 6.38249268 -32.0971637 6.38998535 -31.05252075 6.39770508 C-15.28647 6.513428 -15.28647 6.513428 0 3 C0 2.01 0 1.02 0 0 Z " fill="#BF0000" transform="translate(406,384)" data-index="9" style="visibility: visible;"/>
<path d="M0 0 C23.13438925 1.06610089 43.26361338 13.70137629 60.62109375 28.1875 C62.94635643 30.16178852 62.94635643 30.16178852 66 31 C66 31.66 66 32.32 66 33 C67.485 33.495 67.485 33.495 69 34 C69 34.66 69 35.32 69 36 C65.01140632 34.75675462 61.41242584 33.29717953 57.734375 31.3203125 C56.27451172 30.54494141 56.27451172 30.54494141 54.78515625 29.75390625 C52.7771049 28.67622618 50.76928861 27.598108 48.76171875 26.51953125 C43.45326992 23.70094775 38.18894537 21.20605645 32.58105469 19.05029297 C27.50445567 16.98450324 22.64202292 14.4643108 17.75 12 C16.17605469 11.21882812 16.17605469 11.21882812 14.5703125 10.421875 C4.12422529 5.1856085 4.12422529 5.1856085 0 2 C0 1.34 0 0.68 0 0 Z " fill="#CB0000" transform="translate(247,238)" data-index="10" style="visibility: visible;"/>
<path d="M0 0 C15.84 0 31.68 0 48 0 C48 2.64 48 5.28 48 8 C32.16 8 16.32 8 0 8 C0 5.36 0 2.72 0 0 Z " fill="#E10000" transform="translate(308,191)" data-index="11" style="visibility: visible;"/>

<path d="M0 0 C12.10035306 -0.3716832 23.97574024 0.77176809 36 2 C36 2.33 36 2.66 36 3 C20.50589713 5.25368769 5.58864167 5.13371939 -10 4 C-10.33 4.99 -10.66 5.98 -11 7 C-11 5.68 -11 4.36 -11 3 C-0.605 2.505 -0.605 2.505 10 2 C6.7 1.67 3.4 1.34 0 1 C0 0.67 0 0.34 0 0 Z " fill="#940000" transform="translate(299,387)" data-index="13" style="visibility: visible;"/>
<path d="M0 0 C2.74499853 2.74499853 3.40932241 5.93376507 4.5 9.5625 C4.72067139 10.28469727 4.94134277 11.00689453 5.16870117 11.75097656 C9 24.46204172 9 24.46204172 9 31 C8.34 31 7.68 31 7 31 C7 33.97 7 36.94 7 40 C6.67 40 6.34 40 6 40 C5.88930176 39.26475098 5.77860352 38.52950195 5.66455078 37.77197266 C5.15382415 34.38927231 4.63943527 31.00713825 4.125 27.625 C3.95097656 26.46871094 3.77695312 25.31242187 3.59765625 24.12109375 C2.67510287 18.07324381 1.67388356 12.07581576 0.36279297 6.09912109 C0 4 0 4 0 0 Z " fill="#BC0000" transform="translate(671,244)" data-index="14" style="visibility: visible;"/>
<path d="M0 0 C0.99 0.495 0.99 0.495 2 1 C2.47618812 3.87182587 2.84167597 6.67120147 3.125 9.5625 C3.21136719 10.36880859 3.29773438 11.17511719 3.38671875 12.00585938 C3.59943628 14.00304064 3.80077855 16.00142737 4 18 C3.34 18 2.68 18 2 18 C1.34 18.66 0.68 19.32 0 20 C0 13.4 0 6.8 0 0 Z " fill="#A30000" transform="translate(137,275)" data-index="15" style="visibility: visible;"/>
<path d="M0 0 C-1.61010527 4.07376031 -4.53822271 6.76507069 -7.625 9.75 C-8.140625 10.25660156 -8.65625 10.76320313 -9.1875 11.28515625 C-10.45383339 12.52803902 -11.7263144 13.76465276 -13 15 C-13.66 14.67 -14.32 14.34 -15 14 C-13.58474822 12.41540185 -12.1677358 10.83237609 -10.75 9.25 C-9.96109375 8.36828125 -9.1721875 7.4865625 -8.359375 6.578125 C-2.33939394 0 -2.33939394 0 0 0 Z " fill="#BD0000" transform="translate(544,382)" data-index="16" style="visibility: visible;"/>
<path d="M0 0 C2.28459758 2.28459758 2.97129748 4.12537344 4.125 7.125 C4.47820312 8.03507813 4.83140625 8.94515625 5.1953125 9.8828125 C5.46085937 10.58148438 5.72640625 11.28015625 6 12 C5.34 12 4.68 12 4 12 C3.67 12.66 3.34 13.32 3 14 C2.10570626 12.4274835 1.23512573 10.84146259 0.375 9.25 C-0.11226563 8.36828125 -0.59953125 7.4865625 -1.1015625 6.578125 C-2 4 -2 4 -1.1484375 1.671875 C-0.76945312 1.12015625 -0.39046875 0.5684375 0 0 Z " fill="#930000" transform="translate(363,174)" data-index="17" style="visibility: visible;"/>
<path d="M0 0 C2.475 0.99 2.475 0.99 5 2 C4.01 2.495 4.01 2.495 3 3 C3 3.66 3 4.32 3 5 C-2.22512279 6.46670113 -6.5814234 7.22577402 -12 7 C-8.20458337 4.78600697 -4.24370579 3.99019802 0 3 C0 2.01 0 1.02 0 0 Z " fill="#9B0000" transform="translate(406,384)" data-index="18" style="visibility: visible;"/>
<path d="M0 0 C3.1875 0.875 3.1875 0.875 6 2 C6 2.66 6 3.32 6 4 C6.99 4.33 7.98 4.66 9 5 C9 5.66 9 6.32 9 7 C4.76570244 5.68938409 0.92592596 4.05643741 -3 2 C-2.01 1.34 -1.02 0.68 0 0 Z " fill="#830000" transform="translate(307,267)" data-index="19" style="visibility: visible;"/>
<path d="M0 0 C1.60495567 0.11442461 3.20898119 0.24194694 4.8125 0.375 C5.70582031 0.44460937 6.59914062 0.51421875 7.51953125 0.5859375 C10 1 10 1 13 3 C9.04 3 5.08 3 1 3 C0.67 2.01 0.34 1.02 0 0 Z " fill="#790000" transform="translate(247,238)" data-index="20" style="visibility: visible;"/>
</svg>